<svg width="11" height="7" viewBox="0 0 11 7" fill="none" xmlns="http://www.w3.org/2000/svg">
<path fill-rule="evenodd" clip-rule="evenodd" d="M0.792787 1.29308C0.980314 1.10561 1.23462 1.00029 1.49979 1.00029C1.76495 1.00029 2.01926 1.10561 2.20679 1.29308L5.49979 4.58608L8.79279 1.29308C8.88503 1.19757 8.99538 1.12139 9.11738 1.06898C9.23939 1.01657 9.37061 0.988985 9.50339 0.987831C9.63616 0.986677 9.76784 1.01198 9.89074 1.06226C10.0136 1.11254 10.1253 1.18679 10.2192 1.28069C10.3131 1.37458 10.3873 1.48623 10.4376 1.60913C10.4879 1.73202 10.5132 1.8637 10.512 1.99648C10.5109 2.12926 10.4833 2.26048 10.4309 2.38249C10.3785 2.50449 10.3023 2.61483 10.2068 2.70708L6.20679 6.70708C6.01926 6.89455 5.76495 6.99987 5.49979 6.99987C5.23462 6.99987 4.98031 6.89455 4.79279 6.70708L0.792787 2.70708C0.605316 2.51955 0.5 2.26525 0.5 2.00008C0.5 1.73492 0.605316 1.48061 0.792787 1.29308Z" fill="#8684AE"/>
</svg>
