<svg width="35" height="34" viewBox="0 0 35 34" fill="none" xmlns="http://www.w3.org/2000/svg">
<path fill-rule="evenodd" clip-rule="evenodd" d="M12.4997 12.3999C11.2267 12.3999 10.0058 12.9056 9.10558 13.8058C8.2054 14.706 7.69969 15.9269 7.69969 17.1999V18.3999H6.49969C6.20427 18.3999 5.91923 18.5088 5.69914 18.7059C5.47905 18.903 5.33939 19.1743 5.30689 19.4679L4.10689 30.2679C4.08833 30.4356 4.10535 30.6053 4.15683 30.766C4.20831 30.9267 4.2931 31.0747 4.40566 31.2004C4.51822 31.3261 4.65602 31.4267 4.81007 31.4955C4.96413 31.5643 5.13096 31.5999 5.29969 31.5999H19.6997C19.8684 31.5999 20.0353 31.5643 20.1893 31.4955C20.3434 31.4267 20.4812 31.3261 20.5937 31.2004C20.7063 31.0747 20.7911 30.9267 20.8426 30.766C20.894 30.6053 20.9111 30.4356 20.8925 30.2679L19.6925 19.4679C19.66 19.1743 19.5203 18.903 19.3002 18.7059C19.0802 18.5088 18.7951 18.3999 18.4997 18.3999H17.2997V17.1999C17.2997 15.9269 16.794 14.706 15.8938 13.8058C14.9936 12.9056 13.7727 12.3999 12.4997 12.3999ZM14.8997 18.3999V17.1999C14.8997 16.5634 14.6468 15.9529 14.1967 15.5028C13.7467 15.0528 13.1362 14.7999 12.4997 14.7999C11.8632 14.7999 11.2527 15.0528 10.8026 15.5028C10.3525 15.9529 10.0997 16.5634 10.0997 17.1999V18.3999H14.8997ZM7.69969 21.9999C7.69969 21.6816 7.82612 21.3764 8.05116 21.1514C8.27621 20.9263 8.58143 20.7999 8.89969 20.7999C9.21795 20.7999 9.52318 20.9263 9.74822 21.1514C9.97326 21.3764 10.0997 21.6816 10.0997 21.9999C10.0997 22.3182 9.97326 22.6234 9.74822 22.8484C9.52318 23.0735 9.21795 23.1999 8.89969 23.1999C8.58143 23.1999 8.27621 23.0735 8.05116 22.8484C7.82612 22.6234 7.69969 22.3182 7.69969 21.9999ZM16.0997 20.7999C15.7814 20.7999 15.4762 20.9263 15.2512 21.1514C15.0261 21.3764 14.8997 21.6816 14.8997 21.9999C14.8997 22.3182 15.0261 22.6234 15.2512 22.8484C15.4762 23.0735 15.7814 23.1999 16.0997 23.1999C16.418 23.1999 16.7232 23.0735 16.9482 22.8484C17.1733 22.6234 17.2997 22.3182 17.2997 21.9999C17.2997 21.6816 17.1733 21.3764 16.9482 21.1514C16.7232 20.9263 16.418 20.7999 16.0997 20.7999Z" fill="white"/>
<rect x="14.5" width="20" height="20" rx="10" fill="#5F2EEA"/>
<path d="M24.4997 15.061C23.3517 15.061 22.4743 14.627 21.8677 13.759C21.2703 12.8816 20.9717 11.6263 20.9717 9.99297C20.9717 8.33163 21.2703 7.0763 21.8677 6.22696C22.4743 5.3683 23.3517 4.93896 24.4997 4.93896C25.657 4.93896 26.5343 5.3683 27.1317 6.22696C27.729 7.0763 28.0277 8.32697 28.0277 9.97897C28.0277 11.6216 27.7243 12.8816 27.1177 13.759C26.5203 14.627 25.6477 15.061 24.4997 15.061ZM24.4997 13.857C25.209 13.857 25.7363 13.5443 26.0817 12.919C26.427 12.2843 26.5997 11.3043 26.5997 9.97897C26.5997 8.6443 26.427 7.67363 26.0817 7.06697C25.7457 6.45097 25.2183 6.14297 24.4997 6.14297C23.7903 6.14297 23.263 6.45097 22.9177 7.06697C22.5723 7.68297 22.3997 8.65363 22.3997 9.97897C22.3997 11.3043 22.5723 12.2843 22.9177 12.919C23.263 13.5443 23.7903 13.857 24.4997 13.857Z" fill="#FCFCFC"/>
</svg>
