<svg width="20" height="18" viewBox="0 0 20 18" fill="none" xmlns="http://www.w3.org/2000/svg">
<path d="M2.31804 2.81804C1.90017 3.2359 1.5687 3.73198 1.34255 4.27795C1.1164 4.82392 1 5.40909 1 6.00004C1 6.59099 1.1164 7.17616 1.34255 7.72213C1.5687 8.2681 1.90017 8.76417 2.31804 9.18204L10 16.864L17.682 9.18204C18.526 8.33812 19.0001 7.19352 19.0001 6.00004C19.0001 4.80656 18.526 3.66196 17.682 2.81804C16.8381 1.97412 15.6935 1.50001 14.5 1.50001C13.3066 1.50001 12.162 1.97412 11.318 2.81804L10 4.13604L8.68204 2.81804C8.26417 2.40017 7.7681 2.0687 7.22213 1.84255C6.67616 1.6164 6.09099 1.5 5.50004 1.5C4.90909 1.5 4.32392 1.6164 3.77795 1.84255C3.23198 2.0687 2.7359 2.40017 2.31804 2.81804V2.81804Z" stroke="#FCFCFC" stroke-width="2" stroke-linecap="round" stroke-linejoin="round"/>
</svg>
