<svg width="100" height="17" viewBox="0 0 100 17" fill="none" xmlns="http://www.w3.org/2000/svg">
<g clip-path="url(#clip0_6915_36636)">
<path d="M96.9667 13.8736V13.1295H97.5675C97.8237 13.1295 98.0919 13.1814 98.0919 13.5024C98.0919 13.8233 97.8235 13.8736 97.5675 13.8736H96.9667ZM98.3698 13.4705C98.3486 13.0271 97.9906 12.9473 97.6259 12.9473H96.7091V15.0419H96.9667V14.0764H97.4382L98.0379 15.0419H98.3449L97.7113 14.0732C98.1105 14.0567 98.39 13.917 98.3699 13.4705M97.409 15.6261C96.5128 15.6261 95.8326 14.8714 95.8326 13.998C95.8326 13.1226 96.5129 12.3674 97.409 12.3674C98.3035 12.3674 98.9843 13.1226 98.9843 13.998C98.9843 14.8713 98.3034 15.6261 97.409 15.6261ZM97.409 12.1201C96.3712 12.1201 95.5303 12.96 95.5303 13.9982C95.5303 15.0341 96.3712 15.8735 97.409 15.8735C97.6556 15.8736 97.8997 15.8251 98.1276 15.7308C98.3554 15.6366 98.5624 15.4985 98.7367 15.3243C98.9111 15.1502 99.0494 14.9434 99.1437 14.7159C99.2381 14.4883 99.2866 14.2445 99.2866 13.9982C99.2866 12.9602 98.4468 12.1201 97.409 12.1201Z" fill="#14142B"/>
<path d="M38.3174 7.0895C38.6966 11.9285 34.7202 16.1945 29.9044 16.3429C24.8145 16.5001 21.1313 12.0631 22.1367 7.0895H38.3173M37.8122 4.87737C36.6233 1.82627 33.6788 0.000138029 30.4523 0.0843335C27.2665 0.16636 24.3602 2.06828 22.9157 4.87737H37.8121" fill="#5F2EEA"/>
<path d="M5.82925 7.08925H14.5264C15.1272 7.08925 15.649 6.60197 15.7047 6.00352C15.762 5.37918 15.2911 4.87699 14.6632 4.87699H4.25339L5.57527 1.03409C5.68876 0.706261 6.00585 0.472656 6.35635 0.472656H15.5208C18.6413 0.472656 20.9845 3.03702 20.6955 6.14114C20.4198 9.11387 17.8262 11.4765 14.8399 11.4774L9.11468 11.4796C8.58229 11.4802 8.12361 11.8144 7.96085 12.2873L6.92104 15.311C6.8081 15.6394 6.49209 15.8734 6.14214 15.8734H1.92184C1.1747 15.8734 0.713437 15.1637 0.953569 14.4656L2.72246 9.32578C3.17367 8.01337 4.42932 7.08925 5.82925 7.08925ZM86.5381 15.8734L85.5625 12.228C85.4389 11.7673 85.0507 11.4792 84.5783 11.4792L83.2262 11.4797C82.6938 11.4803 82.2351 11.8145 82.0723 12.2874L81.0331 15.311C80.9196 15.6394 80.6036 15.8734 80.2536 15.8734H76.0333C75.2862 15.8734 74.8249 15.1637 75.0656 14.4656L76.8339 9.32578C77.2852 8.01337 78.5408 7.08925 79.9407 7.08925H88.6379C89.2387 7.08925 89.7609 6.60197 89.8162 6.00352C89.874 5.37918 89.4026 4.87699 88.7747 4.87699H78.3649L79.6873 1.03409C79.8002 0.706261 80.1173 0.472656 80.4678 0.472656H89.6328C92.7527 0.472656 95.096 3.03702 94.807 6.14114C94.6123 8.23789 93.265 10.0301 91.4409 10.9056L92.7734 15.8734H86.5381ZM47.7811 4.87707L48.9593 1.45258C49.1263 0.967473 48.8002 0.47274 48.2801 0.47274H43.652C43.302 0.47274 42.9844 0.706345 42.8715 1.03418L41.549 4.87707H47.7811ZM51.6286 15.8733H39.2175C38.4703 15.8733 38.0096 15.1637 38.2498 14.4656L40.7875 7.0892H47.0195L46.15 9.61655C45.9097 10.3145 46.3811 11.0243 47.1272 11.0243H52.4149C53.1625 11.0243 53.6387 11.7324 53.399 12.4293L52.4068 15.3109C52.2939 15.6393 51.9786 15.8733 51.6286 15.8733ZM65.9619 0.767763L62.5327 4.87707H71.7692L71.4235 1.11742C71.3884 0.738749 71.0777 0.472876 70.6986 0.472876H66.5923C66.3473 0.472876 66.1173 0.58134 65.9619 0.767763ZM67.2095 15.8733H71.8789C72.3482 15.8733 72.7411 15.4465 72.6986 14.9762L71.9727 7.0892H60.6867L54.8475 14.0869C54.2558 14.7965 54.6698 15.8733 55.6191 15.8733H59.3282C59.5732 15.8733 59.8049 15.7525 59.9591 15.5661L63.0245 11.8943C63.2478 11.6263 63.5818 11.4786 63.9328 11.4786H65.1853C65.7294 11.4786 66.1764 11.8551 66.2267 12.4007L66.486 15.2151C66.5013 15.3957 66.5842 15.5638 66.7184 15.6859C66.8525 15.808 67.0281 15.8749 67.2095 15.8733Z" fill="#14142B"/>
</g>
<defs>
<clipPath id="clip0_6915_36636">
<rect width="100" height="16.5" fill="white"/>
</clipPath>
</defs>
</svg>
