<svg width="100" height="18" viewBox="0 0 100 18" fill="none" xmlns="http://www.w3.org/2000/svg">
<g clip-path="url(#clip0_6915_36367)">
<path d="M96.9667 14.6236V13.8795H97.5675C97.8237 13.8795 98.0919 13.9314 98.0919 14.2524C98.0919 14.5733 97.8235 14.6236 97.5675 14.6236H96.9667ZM98.3698 14.2205C98.3486 13.7771 97.9906 13.6973 97.6259 13.6973H96.7091V15.7919H96.9667V14.8264H97.4382L98.0379 15.7919H98.3449L97.7113 14.8232C98.1105 14.8067 98.39 14.667 98.3699 14.2205M97.409 16.3761C96.5128 16.3761 95.8326 15.6214 95.8326 14.748C95.8326 13.8726 96.5129 13.1174 97.409 13.1174C98.3035 13.1174 98.9843 13.8726 98.9843 14.748C98.9843 15.6213 98.3034 16.3761 97.409 16.3761ZM97.409 12.8701C96.3712 12.8701 95.5303 13.71 95.5303 14.7482C95.5303 15.7841 96.3712 16.6235 97.409 16.6235C97.6556 16.6236 97.8997 16.5751 98.1276 16.4808C98.3554 16.3866 98.5624 16.2485 98.7367 16.0743C98.9111 15.9002 99.0494 15.6934 99.1437 15.4659C99.2381 15.2383 99.2866 14.9945 99.2866 14.7482C99.2866 13.7102 98.4468 12.8701 97.409 12.8701Z" fill="#FCFCFC"/>
<path d="M38.3174 7.8395C38.6966 12.6785 34.7202 16.9445 29.9044 17.0929C24.8145 17.2501 21.1313 12.8131 22.1367 7.8395H38.3173M37.8122 5.62737C36.6233 2.57627 33.6788 0.750138 30.4523 0.834333C27.2665 0.91636 24.3602 2.81828 22.9157 5.62737H37.8121" fill="#5F2EEA"/>
<path d="M5.82925 7.83925H14.5264C15.1272 7.83925 15.649 7.35197 15.7047 6.75352C15.762 6.12918 15.2911 5.62699 14.6632 5.62699H4.25339L5.57527 1.78409C5.68876 1.45626 6.00585 1.22266 6.35635 1.22266H15.5208C18.6413 1.22266 20.9845 3.78702 20.6955 6.89114C20.4198 9.86387 17.8262 12.2265 14.8399 12.2274L9.11468 12.2296C8.58229 12.2302 8.12361 12.5644 7.96085 13.0373L6.92104 16.061C6.8081 16.3894 6.49209 16.6234 6.14214 16.6234H1.92184C1.1747 16.6234 0.713437 15.9137 0.953569 15.2156L2.72246 10.0758C3.17367 8.76337 4.42932 7.83925 5.82925 7.83925ZM86.5381 16.6234L85.5625 12.978C85.4389 12.5173 85.0507 12.2292 84.5783 12.2292L83.2262 12.2297C82.6938 12.2303 82.2351 12.5645 82.0723 13.0374L81.0331 16.061C80.9196 16.3894 80.6036 16.6234 80.2536 16.6234H76.0333C75.2862 16.6234 74.8249 15.9137 75.0656 15.2156L76.8339 10.0758C77.2852 8.76337 78.5408 7.83925 79.9407 7.83925H88.6379C89.2387 7.83925 89.7609 7.35197 89.8162 6.75352C89.874 6.12918 89.4026 5.62699 88.7747 5.62699H78.3649L79.6873 1.78409C79.8002 1.45626 80.1173 1.22266 80.4678 1.22266H89.6328C92.7527 1.22266 95.096 3.78702 94.807 6.89114C94.6123 8.98789 93.265 10.7801 91.4409 11.6556L92.7734 16.6234H86.5381ZM47.7811 5.62707L48.9593 2.20258C49.1263 1.71747 48.8002 1.22274 48.2801 1.22274H43.652C43.302 1.22274 42.9844 1.45635 42.8715 1.78418L41.549 5.62707H47.7811ZM51.6286 16.6233H39.2175C38.4703 16.6233 38.0096 15.9137 38.2498 15.2156L40.7875 7.8392H47.0195L46.15 10.3666C45.9097 11.0645 46.3811 11.7743 47.1272 11.7743H52.4149C53.1625 11.7743 53.6387 12.4824 53.399 13.1793L52.4068 16.0609C52.2939 16.3893 51.9786 16.6233 51.6286 16.6233ZM65.9619 1.51776L62.5327 5.62707H71.7692L71.4235 1.86742C71.3884 1.48875 71.0777 1.22288 70.6986 1.22288H66.5923C66.3473 1.22288 66.1173 1.33134 65.9619 1.51776ZM67.2095 16.6233H71.8789C72.3482 16.6233 72.7411 16.1965 72.6986 15.7262L71.9727 7.8392H60.6867L54.8475 14.8369C54.2558 15.5465 54.6698 16.6233 55.6191 16.6233H59.3282C59.5732 16.6233 59.8049 16.5025 59.9591 16.3161L63.0245 12.6443C63.2478 12.3763 63.5818 12.2286 63.9328 12.2286H65.1853C65.7294 12.2286 66.1764 12.6051 66.2267 13.1507L66.486 15.9651C66.5013 16.1457 66.5842 16.3138 66.7184 16.4359C66.8525 16.558 67.0281 16.6249 67.2095 16.6233Z" fill="#FCFCFC"/>
</g>
<defs>
<clipPath id="clip0_6915_36367">
<rect width="100" height="16.5" fill="white" transform="translate(0 0.75)"/>
</clipPath>
</defs>
</svg>
